<svg width="130" height="32" viewBox="0 0 130 32" fill="none" xmlns="http://www.w3.org/2000/svg">
<path d="M9.70813 12.3193C15.4797 10.3155 16.4621 5.09592 15.7253 0.296851C15.7253 0.123688 15.8727 9.08971e-07 16.02 0.0494758C21.546 2.7706 27.7596 8.70759 27.7596 17.6131C27.7596 24.4406 22.5038 30.4766 14.8657 30.4766C12.1402 30.6014 9.45104 29.8085 7.22266 28.2229C4.99428 26.6373 3.35358 24.3495 2.55954 21.7204C1.76549 19.0913 1.86332 16.2707 2.83757 13.7038C3.81183 11.137 5.60702 8.97 7.93982 7.54493C8.08718 7.44598 8.28366 7.54493 8.28366 7.71809C8.35734 8.63338 8.60294 10.934 9.6099 12.3193H9.70813Z" fill="url(#paint0_radial_9_214)"/>
<path d="M44.0183 25.0591L44.4358 24.5643L45.7375 28.7202L45.5656 28.8934C44.5832 29.8086 43.1096 30.2787 41.2185 30.2787H41.1448C39.4256 30.2787 38.0748 29.7839 37.1415 28.8686C36.2083 27.9286 35.7171 26.5186 35.7171 24.7375V13.4077H32.4015V8.83127H35.7171V3.31482H40.8255V8.83127H44.8779V13.4077H40.801V23.6243C40.801 24.0943 40.9238 25.6033 42.3482 25.6033C43.085 25.6033 43.7727 25.3312 44.0183 25.0343V25.0591ZM46.7199 29.8086V8.85601H51.8283V29.8086H46.7199ZM49.2496 0.296844C49.8557 0.296864 50.4483 0.47761 50.9526 0.816303C51.4569 1.155 51.8504 1.63648 52.0834 2.20006C52.3165 2.76364 52.3787 3.3841 52.2622 3.98324C52.1457 4.58238 51.8558 5.13339 51.4289 5.5668C51.002 6.00022 50.4573 6.29666 49.8634 6.41875C49.2695 6.54084 48.653 6.48312 48.0916 6.25287C47.5303 6.02262 47.0491 5.63014 46.7089 5.1249C46.3686 4.61966 46.1844 4.02426 46.1796 3.41377C46.1796 1.73162 47.5795 0.296844 49.2496 0.296844ZM65.5573 8.33652C69.9781 8.33652 72.4095 10.7608 72.4095 15.1888V29.7839H67.3011V16.4257C67.2028 14.0509 66.0731 12.9624 63.6662 12.9624C61.5049 12.9624 59.7612 14.2983 58.877 15.4362V29.7839H53.7686V8.88075H58.877V11.1071C60.3506 9.67235 62.7084 8.386 65.5573 8.386V8.33652ZM89.4049 11.0329V1.18739H94.5134V29.8334H89.4049V27.6565C88.6233 28.4869 87.6829 29.1495 86.6404 29.6044C85.5979 30.0593 84.4748 30.297 83.3387 30.3034C77.7636 30.3034 74.0305 25.9001 74.0305 19.3447C74.0305 12.7645 77.7636 8.36126 83.3387 8.36126C84.4772 8.36649 85.6027 8.60619 86.6459 9.06563C87.6891 9.52508 88.628 10.1945 89.4049 11.0329ZM89.4049 15.4609C88.8356 14.7141 88.1081 14.1045 87.2754 13.6765C86.4427 13.2486 85.5257 13.0131 84.5912 12.9872C81.423 12.9872 79.3108 15.5351 79.3108 19.3447C79.3108 23.1295 81.423 25.6775 84.5912 25.6775C86.4332 25.6775 88.4471 24.688 89.4049 23.2532V15.4609ZM106.449 8.36126C112.491 8.36126 116.691 13.0614 116.691 19.7405V21.1505H101.243C101.759 24.0943 104.067 25.9743 107.211 25.9743C109.2 25.9743 111.386 25.1085 112.639 23.8469L112.982 23.5501L115.414 27.0628L115.168 27.2854C112.867 29.3407 109.867 30.4218 106.793 30.3034C100.408 30.3034 95.9133 25.7764 95.9133 19.32C95.8637 17.8945 96.1005 16.4736 96.6096 15.1426C97.1186 13.8116 97.8895 12.5979 98.8758 11.5745C99.8621 10.551 101.044 9.73877 102.349 9.18661C103.655 8.63445 105.058 8.35372 106.474 8.36126H106.449ZM101.218 17.2667H111.705C111.411 14.1251 108.832 12.6903 106.449 12.6903C102.864 12.6903 101.513 15.4114 101.218 17.2915V17.2667ZM129.045 8.36126H129.413V13.5561L128.971 13.4819C128.602 13.4077 128.136 13.3582 127.669 13.3582C126.024 13.3582 123.74 14.5209 122.88 15.7578V29.7839H117.772V8.85601H122.905V11.1813C124.599 9.40023 126.834 8.36126 129.045 8.36126Z" fill="#424242"/>
<defs>
<radialGradient id="paint0_radial_9_214" cx="0" cy="0" r="1" gradientUnits="userSpaceOnUse" gradientTransform="translate(14.8938 30.4893) scale(25.7317 30.4509)">
<stop stop-color="#FF7854"/>
<stop offset="1" stop-color="#FD267D"/>
</radialGradient>
</defs>
</svg>
