<svg width="35" height="35" viewBox="0 0 35 35" fill="none" xmlns="http://www.w3.org/2000/svg">
<g clip-path="url(#clip0_4_32)">
<path fill-rule="evenodd" clip-rule="evenodd" d="M17.1654 10.3153L8.27139 1.42127C6.38101 -0.469117 3.30697 -0.476355 1.41543 1.41519C-0.47226 3.30288 -0.473386 6.37624 1.42151 8.27114L10.3156 17.1652L1.42151 26.0592C-0.473386 27.9541 -0.47226 31.0275 1.41543 32.9152C3.30697 34.8067 6.38101 34.7995 8.27139 32.9091L17.1654 24.0151L26.0595 32.9091C27.9499 34.7995 31.0239 34.8067 32.9154 32.9152C34.8031 31.0275 34.8042 27.9541 32.9093 26.0592L24.0153 17.1652L32.9093 8.27114C34.8042 6.37624 34.8031 3.30288 32.9154 1.41519C31.0239 -0.476355 27.9499 -0.469117 26.0595 1.42127L17.1654 10.3153Z" fill="url(#paint0_linear_4_32)"/>
</g>
<defs>
<linearGradient id="paint0_linear_4_32" x1="34.3309" y1="0.000493139" x2="0.000490046" y2="34.3304" gradientUnits="userSpaceOnUse">
<stop stop-color="#FD2C7A"/>
<stop offset="1" stop-color="#FF7255"/>
</linearGradient>
<clipPath id="clip0_4_32">
<rect width="35" height="35" fill="white"/>
</clipPath>
</defs>
</svg>
